<svg width="31" height="30" viewBox="0 0 31 30" fill="none" xmlns="http://www.w3.org/2000/svg">
<path d="M23.2399 15.5654C21.2557 15.5585 19.3575 16.3756 17.9991 17.8221C16.0452 16.2632 13.6177 15.4184 11.1182 15.4278H11.0985C8.09443 15.4342 5.30675 16.6019 3.24065 18.727C1.14154 20.8721 -0.00627118 23.804 8.73119e-05 26.9853C0.00131798 27.1594 0.0696203 27.326 0.190431 27.4509C0.313704 27.5743 0.481486 27.6431 0.656036 27.6412L17.8744 27.6084C17.9138 27.6543 17.9529 27.6937 17.9925 27.7397C20.2531 30.1321 23.8464 30.6916 26.7276 29.1002C29.6088 27.5085 31.0483 24.1693 30.2269 20.9818C29.4054 17.7944 26.5315 15.5665 23.2399 15.5654ZM1.33168 26.3228C1.46951 23.7449 2.46656 21.3902 4.17843 19.639C5.99552 17.7696 8.45522 16.7397 11.0985 16.7397H11.1182C13.3244 16.7311 15.4674 17.4761 17.1922 18.8517C15.739 21.0963 15.6432 23.9599 16.943 26.2967L1.33168 26.3228ZM23.2399 28.6842C19.9794 28.6842 17.3366 26.0411 17.3366 22.7807C17.3366 19.5206 19.9794 16.8773 23.2399 16.8773C26.5004 16.8773 29.1432 19.5206 29.1432 22.7807C29.1432 26.0411 26.5004 28.6842 23.2399 28.6842Z" fill="#384741"/>
<path d="M11.1051 13.8666C14.9341 13.8666 18.0383 10.7624 18.0383 6.93341C18.0383 3.10417 14.9341 0 11.1051 0C7.27604 0 4.17188 3.10417 4.17188 6.93341C4.17557 10.7608 7.27748 13.8629 11.1051 13.8666ZM11.1051 1.3119C14.2099 1.3119 16.7264 3.82883 16.7264 6.93341C16.7264 10.0378 14.2099 12.5547 11.1051 12.5547C8.0005 12.5547 5.48377 10.0378 5.48377 6.93341C5.48746 3.83026 8.00193 1.31579 11.1051 1.3119Z" fill="#384741"/>
<path d="M25.4504 20.7798L22.282 23.3577L21.1211 21.9998C20.8856 21.7244 20.4717 21.6922 20.1964 21.9276C19.921 22.1631 19.8888 22.5772 20.1242 22.8527L21.6985 24.6956C21.8234 24.8408 22.0053 24.9247 22.1971 24.9251C22.3472 24.9268 22.4933 24.8755 22.61 24.7809L26.277 21.7964C26.5539 21.5675 26.5943 21.1576 26.3676 20.8787C26.1406 20.5995 25.7314 20.5556 25.4504 20.7798Z" fill="#384741"/>
</svg>
