<svg width="36" height="35" viewBox="0 0 36 35" fill="none" xmlns="http://www.w3.org/2000/svg">
<path d="M18.1546 34C13.6741 34 9.46564 32.2825 6.2997 29.1646C3.13402 26.0469 1.39307 21.9058 1.39307 17.5C1.39307 13.0942 3.13402 8.95314 6.2997 5.83543L5.94886 5.47919L6.2997 5.83543C9.46564 2.71746 13.6741 1 18.1546 1C22.6352 1 26.8436 2.71746 30.0095 5.83543C33.1752 8.95314 34.9161 13.0942 34.9161 17.5C34.9161 21.9058 33.1752 26.0469 30.0095 29.1646C26.8436 32.2825 22.6352 34 18.1546 34Z" fill="white" stroke="#0F9670"/>
<path d="M9.37632 2.85627C8.14429 3.57593 6.99554 4.45285 5.95615 5.4765C2.69717 8.6861 0.899906 12.9576 0.899906 17.5C0.899906 22.0424 2.69717 26.3139 5.95615 29.5235C6.99594 30.5475 8.14516 31.4247 9.37772 32.1445C4.29227 29.1847 0.884521 23.7313 0.884521 17.5C0.884521 11.2693 4.29165 5.8163 9.37632 2.85627ZM26.9301 32.1444C28.1625 31.4246 29.3117 30.5474 30.3514 29.5235C33.6103 26.3139 35.4076 22.0424 35.4076 17.5C35.4076 12.9576 33.6103 8.6861 30.3513 5.4765C29.312 4.45291 28.1633 3.57603 26.9314 2.85639C32.0159 5.81645 35.423 11.2694 35.423 17.5C35.423 23.7312 32.0154 29.1845 26.9301 32.1444Z" fill="#00425F" stroke="#0F9670"/>
<path d="M18.4289 19.521C21.9198 19.521 24.7497 16.734 24.7497 13.296C24.7497 9.85807 21.9198 7.07104 18.4289 7.07104C14.9381 7.07104 12.1082 9.85807 12.1082 13.296C12.1082 16.734 14.9381 19.521 18.4289 19.521Z" stroke="#0F9670" stroke-miterlimit="10" stroke-linecap="round" stroke-linejoin="round"/>
<path d="M14.1845 11.6561C14.3872 10.6569 14.9846 9.77789 15.8453 9.21247C16.706 8.64705 17.7595 8.44151 18.774 8.64107" stroke="#0F9670" stroke-miterlimit="10" stroke-linecap="round" stroke-linejoin="round"/>
<path d="M7.58759 27.8319C7.59294 26.2268 8.2427 24.6889 9.39508 23.5538C10.5475 22.4187 12.1089 21.7785 13.7388 21.7729H23.1128C24.7444 21.7758 26.3085 22.4148 27.4631 23.5502C28.6177 24.6856 29.2688 26.2251 29.2742 27.8319" stroke="#0F9670" stroke-miterlimit="10" stroke-linecap="round" stroke-linejoin="round"/>
<path d="M14.0622 12.8989C14.0135 13.3115 14.0135 13.7284 14.0622 14.1409" stroke="#0F9670" stroke-miterlimit="10" stroke-linecap="round" stroke-linejoin="round"/>
<path d="M18.4289 19.521C21.9198 19.521 24.7497 16.734 24.7497 13.296C24.7497 9.85807 21.9198 7.07104 18.4289 7.07104C14.9381 7.07104 12.1082 9.85807 12.1082 13.296C12.1082 16.734 14.9381 19.521 18.4289 19.521Z" stroke="#0F9670" stroke-miterlimit="10" stroke-linecap="round" stroke-linejoin="round"/>
<path d="M14.1845 11.6561C14.3872 10.6569 14.9846 9.77789 15.8453 9.21247C16.706 8.64705 17.7595 8.44151 18.774 8.64107" stroke="#0F9670" stroke-miterlimit="10" stroke-linecap="round" stroke-linejoin="round"/>
<path d="M7.58759 27.8319C7.59294 26.2268 8.2427 24.6889 9.39508 23.5538C10.5475 22.4187 12.1089 21.7785 13.7388 21.7729H23.1128C24.7444 21.7758 26.3085 22.4148 27.4631 23.5502C28.6177 24.6856 29.2688 26.2251 29.2742 27.8319" stroke="#0F9670" stroke-miterlimit="10" stroke-linecap="round" stroke-linejoin="round"/>
<path d="M14.0622 12.8989C14.0135 13.3115 14.0135 13.7284 14.0622 14.1409" stroke="#0F9670" stroke-miterlimit="10" stroke-linecap="round" stroke-linejoin="round"/>
</svg>
