<svg width="35" height="35" viewBox="0 0 21 25" fill="none" xmlns="http://www.w3.org/2000/svg">
<path d="M20.7599 21.0865L18.9703 18.1052C18.1453 16.7292 17.7088 15.1542 17.7088 13.549V10.9375C17.7088 6.91772 14.4369 3.64584 10.4171 3.64584C6.39735 3.64584 3.12547 6.91772 3.12547 10.9375V13.549C3.12547 15.1542 2.689 16.7292 1.864 18.1052L0.0743967 21.0865C-0.0224783 21.2469 -0.0245779 21.4479 0.0671214 21.6104C0.159846 21.774 0.333772 21.875 0.521272 21.875H20.3129C20.5004 21.875 20.6744 21.774 20.7671 21.6104C20.8588 21.4479 20.8567 21.2469 20.7599 21.0865ZM1.4411 20.8333L2.75672 18.6406C3.67962 17.1031 4.16712 15.3427 4.16712 13.549V10.9375C4.16712 7.49062 6.97025 4.68749 10.4171 4.68749C13.864 4.68749 16.6671 7.49062 16.6671 10.9375V13.549C16.6671 15.3427 17.1546 17.1031 18.0765 18.6406L19.3932 20.8333H1.4411Z" fill="#384741"/>
<path d="M10.4172 0C9.26818 0 8.3338 0.934375 8.3338 2.08335V4.1667C8.3338 4.45415 8.56715 4.6875 8.85465 4.6875C9.14215 4.6875 9.3755 4.45415 9.3755 4.16665V2.08335C9.3755 1.50835 9.84215 1.0417 10.4172 1.0417C10.9922 1.0417 11.4588 1.50835 11.4588 2.08335V4.1667C11.4588 4.45415 11.6922 4.6875 11.9797 4.6875C12.2672 4.6875 12.5005 4.45415 12.5005 4.16665V2.08335C12.5005 0.934375 11.5661 0 10.4172 0Z" fill="#384741"/>
<path d="M12.6714 21.0906C12.5245 20.8427 12.2068 20.7615 11.9579 20.9042C11.7089 21.05 11.6256 21.3698 11.7714 21.6177C11.9068 21.8479 11.9808 22.1239 11.9808 22.3958C11.9808 23.2573 11.2797 23.9583 10.4183 23.9583C9.5568 23.9583 8.85577 23.2573 8.85577 22.3958C8.85577 22.1239 8.92975 21.8479 9.06515 21.6177C9.20992 21.3687 9.12662 21.05 8.87867 20.9042C8.62765 20.7614 8.31095 20.8427 8.16515 21.0906C7.93492 21.4844 7.81305 21.9354 7.81305 22.3959C7.8131 23.8323 8.98077 25 10.4172 25C11.8537 25 13.0214 23.8323 13.0235 22.3959C13.0235 21.9354 12.9016 21.4844 12.6714 21.0906Z" fill="#384741"/>
</svg>
