<svg width="31" height="30" viewBox="0 0 31 30" fill="none" xmlns="http://www.w3.org/2000/svg">
<path d="M23.2398 15.5654C21.2555 15.5585 19.3574 16.3756 17.999 17.8221C16.0451 16.2632 13.6176 15.4184 11.1181 15.4278H11.0984C8.09431 15.4342 5.30663 16.6019 3.24053 18.727C1.14141 20.8721 -0.00639325 23.804 -3.47584e-05 26.9853C0.00119591 27.1594 0.0694983 27.326 0.190309 27.4509C0.313582 27.5743 0.481364 27.6431 0.655914 27.6412L17.8743 27.6084C17.9136 27.6543 17.9528 27.6937 17.9924 27.7397C20.2529 30.1321 23.8463 30.6916 26.7275 29.1002C29.6087 27.5085 31.0482 24.1693 30.2267 20.9818C29.4053 17.7944 26.5314 15.5665 23.2398 15.5654ZM1.33155 26.3228C1.46939 23.7449 2.46644 21.3902 4.17831 19.639C5.99539 17.7696 8.4551 16.7397 11.0984 16.7397H11.1181C13.3243 16.7311 15.4673 17.4761 17.1921 18.8517C15.7388 21.0963 15.643 23.9599 16.9428 26.2967L1.33155 26.3228ZM23.2398 28.6842C19.9793 28.6842 17.3365 26.0411 17.3365 22.7807C17.3365 19.5206 19.9793 16.8773 23.2398 16.8773C26.5002 16.8773 29.1431 19.5206 29.1431 22.7807C29.1431 26.0411 26.5002 28.6842 23.2398 28.6842Z" fill="#384741"/>
<path d="M11.105 13.8666C14.934 13.8666 18.0382 10.7624 18.0382 6.93341C18.0382 3.10417 14.934 0 11.105 0C7.27592 0 4.17175 3.10417 4.17175 6.93341C4.17544 10.7608 7.27736 13.8629 11.105 13.8666ZM11.105 1.3119C14.2097 1.3119 16.7263 3.82883 16.7263 6.93341C16.7263 10.0378 14.2097 12.5547 11.105 12.5547C8.00038 12.5547 5.48365 10.0378 5.48365 6.93341C5.48734 3.83026 8.00181 1.31579 11.105 1.3119Z" fill="#384741"/>
<path d="M25.7315 20.2685C25.3734 19.9105 24.793 19.9105 24.4349 20.2685L23 21.7034L21.5651 20.2685C21.2071 19.9105 20.6266 19.9105 20.2685 20.2685C19.9105 20.6265 19.9105 21.2071 20.2685 21.5651L21.7034 23L20.2685 24.4349C19.9105 24.7929 19.9105 25.3734 20.2685 25.7315C20.4476 25.9106 20.6821 26 20.9168 26C21.1514 26 21.3861 25.9105 21.5651 25.7315L22.9999 24.2966L24.4348 25.7315C24.6139 25.9105 24.8485 26 25.0831 26C25.3177 26 25.5524 25.9105 25.7314 25.7315C26.0894 25.3735 26.0894 24.793 25.7314 24.4349L24.2965 23L25.7314 21.5651C26.0895 21.2071 26.0895 20.6265 25.7315 20.2685Z" fill="#384741"/>
</svg>
