
<svg width="29" height="35" viewBox="0 0 29 35" fill="none" xmlns="http://www.w3.org/2000/svg">
<g opacity="0.5">
<path d="M19.0493 12.6807C18.5965 12.6807 18.2296 13.0476 18.2296 13.5003V28.9921C18.2296 29.4446 18.5965 29.8118 19.0493 29.8118C19.502 29.8118 19.869 29.4446 19.869 28.9921V13.5003C19.869 13.0476 19.502 12.6807 19.0493 12.6807Z" fill="#384741"/>
<path d="M9.37729 12.6807C8.92455 12.6807 8.55762 13.0476 8.55762 13.5003V28.9921C8.55762 29.4446 8.92455 29.8118 9.37729 29.8118C9.83003 29.8118 10.197 29.4446 10.197 28.9921V13.5003C10.197 13.0476 9.83003 12.6807 9.37729 12.6807Z" fill="#384741"/>
<path d="M2.328 10.4198V30.6148C2.328 31.8084 2.76569 32.9294 3.53028 33.7337C4.29136 34.5402 5.35053 34.9981 6.459 35H21.9674C23.0762 34.9981 24.1354 34.5402 24.8961 33.7337C25.6607 32.9294 26.0984 31.8084 26.0984 30.6148V10.4198C27.6183 10.0164 28.6032 8.54805 28.3999 6.98843C28.1963 5.42914 26.8678 4.26271 25.2951 4.26239H21.0984V3.2378C21.1032 2.37619 20.7626 1.54883 20.1526 0.940166C19.5427 0.331818 18.714 -0.00693634 17.8524 0.000107698H10.574C9.71239 -0.00693634 8.88375 0.331818 8.2738 0.940166C7.66385 1.54883 7.32318 2.37619 7.32798 3.2378V4.26239H3.13134C1.55859 4.26271 0.230153 5.42914 0.0265167 6.98843C-0.1768 8.54805 0.808084 10.0164 2.328 10.4198ZM21.9674 33.3607H6.459C5.05756 33.3607 3.96733 32.1568 3.96733 30.6148V10.4919H24.4591V30.6148C24.4591 32.1568 23.3689 33.3607 21.9674 33.3607ZM8.96732 3.2378C8.96188 2.811 9.12965 2.4002 9.43255 2.09891C9.73512 1.79762 10.1469 1.63208 10.574 1.63945H17.8524C18.2795 1.63208 18.6913 1.79762 18.9939 2.09891C19.2968 2.39988 19.4645 2.811 19.4591 3.2378V4.26239H8.96732V3.2378ZM3.13134 5.90173H25.2951C26.1099 5.90173 26.7705 6.56227 26.7705 7.37713C26.7705 8.192 26.1099 8.85254 25.2951 8.85254H3.13134C2.31647 8.85254 1.65593 8.192 1.65593 7.37713C1.65593 6.56227 2.31647 5.90173 3.13134 5.90173Z" fill="#384741"/>
<path d="M14.2131 12.6807C13.7604 12.6807 13.3934 13.0476 13.3934 13.5003V28.9921C13.3934 29.4446 13.7604 29.8118 14.2131 29.8118C14.6658 29.8118 15.0328 29.4446 15.0328 28.9921V13.5003C15.0328 13.0476 14.6658 12.6807 14.2131 12.6807Z" fill="#384741"/>
</g>
</svg>
