
<svg width="20" height="19" viewBox="0 0 20 19" fill="none" xmlns="http://www.w3.org/2000/svg">
<path d="M19.427 9.03649C19.1087 9.03649 18.854 9.29116 18.854 9.60949V14.8217C18.854 16.2394 17.6995 17.3896 16.2861 17.3896H3.71392C2.29626 17.3896 1.14601 16.2351 1.14601 14.8217V9.5246C1.14601 9.20627 0.891341 8.9516 0.573005 8.9516C0.254669 8.9516 0 9.20627 0 9.5246V14.8217C0 16.8718 1.66808 18.5356 3.71392 18.5356H16.2861C18.3362 18.5356 20 16.8676 20 14.8217V9.60949C20 9.2954 19.7453 9.03649 19.427 9.03649Z" fill="#0F4A39"/>
<path d="M9.59683 13.9856C9.70719 14.0959 9.85575 14.1553 10.0001 14.1553C10.1444 14.1553 10.2929 14.1002 10.4033 13.9856L14.0451 10.3438C14.27 10.1188 14.27 9.75807 14.0451 9.53311C13.8201 9.30815 13.4593 9.30815 13.2344 9.53311L10.5731 12.1986V0.573005C10.5731 0.254669 10.3184 0 10.0001 0C9.68172 0 9.42705 0.254669 9.42705 0.573005V12.1986L6.76152 9.53311C6.53656 9.30815 6.17578 9.30815 5.95082 9.53311C5.72587 9.75807 5.72587 10.1188 5.95082 10.3438L9.59683 13.9856Z" fill="#0F4A39"/>
</svg>
