
<svg width="35" height="34" viewBox="0 0 35 34" fill="none" xmlns="http://www.w3.org/2000/svg">
<path d="M32.999 1.61293C30.8472 -0.537642 27.3473 -0.537642 25.1955 1.61293L3.08783 23.7206C3.07741 23.731 3.07128 23.7439 3.06208 23.7549C3.04921 23.7697 3.03817 23.7856 3.02652 23.8015C2.99403 23.8469 2.9689 23.8953 2.94989 23.9481C2.94438 23.964 2.93641 23.9781 2.93211 23.994C2.93028 24.0002 2.9266 24.0063 2.92476 24.0124L0.757638 33.1162C0.74783 33.1572 0.745377 33.1989 0.744151 33.24C0.744151 33.248 0.741699 33.2553 0.741699 33.2633C0.742312 33.3332 0.757638 33.4012 0.781547 33.4668C0.787065 33.4822 0.793195 33.4956 0.799939 33.5104C0.829978 33.5759 0.867374 33.6391 0.920096 33.6918C0.978335 33.7501 1.047 33.7948 1.12118 33.8255C1.19535 33.8561 1.27444 33.8714 1.35352 33.8714C1.40072 33.8714 1.44854 33.8659 1.49513 33.8549L10.5989 31.6878C10.6154 31.6841 10.6301 31.6749 10.6461 31.6694C10.6669 31.6626 10.6865 31.6547 10.7068 31.6455C10.7509 31.6252 10.792 31.6001 10.83 31.5701C10.8447 31.5584 10.86 31.5498 10.8741 31.537C10.879 31.5321 10.8852 31.5296 10.8901 31.5247L32.9984 9.4164C35.1502 7.2646 35.1502 3.76411 32.999 1.61293ZM32.1321 2.47977C33.6574 4.00565 33.7874 6.40143 32.5306 8.08118L26.5307 2.08129C28.2111 0.824548 30.6069 0.954514 32.1321 2.47977ZM29.0976 11.5835L23.0284 5.51435L23.8952 4.64751L29.9644 10.7167L29.0976 11.5835ZM3.78302 30.8289C3.54332 30.5892 3.15588 30.5892 2.91618 30.8289L2.4521 31.293L4.01782 24.7162L6.72871 24.4152L6.37989 27.5552C6.37744 27.5785 6.38602 27.6 6.38602 27.6227C6.38602 27.6459 6.37744 27.6668 6.37989 27.6901C6.38234 27.7103 6.39276 27.7269 6.39705 27.7465C6.40441 27.782 6.41483 27.8145 6.42771 27.8476C6.44364 27.8875 6.46265 27.9237 6.48595 27.9586C6.50495 27.9868 6.52395 28.0119 6.54725 28.0365C6.57668 28.0677 6.60855 28.0941 6.6435 28.1186C6.67109 28.1376 6.69745 28.1554 6.7281 28.1701C6.76856 28.1891 6.81086 28.2001 6.855 28.2106C6.87829 28.2161 6.8973 28.229 6.92121 28.232C6.94328 28.2345 6.96535 28.2357 6.98803 28.2357H6.98864H6.98926H6.98987H6.99048C7.01255 28.2357 7.03523 28.2345 7.0573 28.232L10.1973 27.8832L9.89632 30.5941L3.31895 32.1598L3.78302 31.6957C4.02211 31.4566 4.02211 31.0686 3.78302 30.8289ZM11.4768 27.47L25.1955 13.7506C25.4352 13.5109 25.4352 13.1235 25.1955 12.8838C24.9558 12.6441 24.5684 12.6441 24.3287 12.8838L10.6099 26.6032L7.68384 26.9281L8.00875 24.002L21.7287 10.2832C21.9684 10.0435 21.9684 9.6561 21.7287 9.4164C21.489 9.17669 21.1016 9.17669 20.8619 9.4164L7.1419 23.1352L5.19058 23.3522L22.1615 6.3812L28.2307 12.4504L11.2597 29.4213L11.4768 27.47ZM30.8312 9.84982L24.7621 3.78066L25.6295 2.9132L31.6987 8.98236L30.8312 9.84982Z" fill="#384741"/>
</svg>
