
<svg width="30" height="27" viewBox="0 0 30 27" fill="none" xmlns="http://www.w3.org/2000/svg">
  <path d="M29.9945 9C29.945 8.1445 28.9275 7.476 26.8925 6.966C26.961 6.816 26.9995 6.66 27 6.498V3H26.9915C26.8125 0.086 14.8715 0 13.5 0C12.1285 0 0.1875 0.086 0.0085 3H0V3.065V6.4995C0.0025 7.4495 1.2285 8.193 3.0525 8.7465C3.0275 8.8295 3.0125 8.914 3.0075 9H3V9.065V12.4935C1.035 12.9995 0.0535 13.6585 0.005 14.5H0V14.565V17.9995C0.0015 18.661 0.598 19.222 1.574 19.6895C1.537 19.791 1.514 19.8945 1.5075 20.0005H1.5V20.0655V23.5C1.504 25.163 5.2485 26.1955 9.409 26.6775C9.4395 26.6835 9.4675 26.696 9.5 26.696C9.5095 26.696 9.5175 26.691 9.527 26.6905C10.329 26.781 11.144 26.8515 11.9505 26.902C11.9675 26.904 11.9825 26.912 12 26.912C12.0095 26.912 12.017 26.907 12.026 26.9065C13.05 26.9685 14.0575 27 15 27C15.9425 27 16.95 26.9685 17.974 26.906C17.983 26.9065 17.991 26.9115 18 26.9115C18.0175 26.9115 18.0325 26.903 18.0495 26.9015C18.856 26.851 19.671 26.781 20.473 26.69C20.4825 26.69 20.4905 26.695 20.5 26.695C20.5325 26.695 20.5605 26.6825 20.591 26.6765C24.7515 26.1945 28.4955 25.1615 28.5 23.498V20H28.492C28.457 19.387 27.9345 18.8755 26.9025 18.448C26.9655 18.3035 27 18.1535 27 17.998V14.73C28.795 14.178 29.9975 13.4395 30 12.498V9H29.9945ZM25.946 18.1605L25.7755 18.31C25.513 18.5415 25.0755 18.775 24.5 19V16.616C25.0945 16.409 25.6005 16.1795 26 15.928V17.997C26 18.0485 25.981 18.1035 25.946 18.1605ZM14.763 20.484C14.69 20.486 14.6165 20.487 14.543 20.4885C14.3645 20.492 14.1815 20.493 14.0005 20.4945V17.997C14.138 17.9955 14.2755 17.9935 14.413 17.991C14.4395 17.9905 14.466 17.99 14.4925 17.9895C14.996 17.98 15.4995 17.9645 16.0005 17.9415V20.438C15.8935 20.4435 15.786 20.4485 15.6775 20.453C15.3765 20.4665 15.0725 20.4765 14.763 20.484ZM12.5795 20.491C12.3505 20.487 12.1225 20.4815 11.896 20.4745C11.868 20.4735 11.84 20.4725 11.812 20.4715C11.5395 20.4625 11.269 20.451 11.0005 20.438V17.942C11.5015 17.9655 12.005 17.981 12.5085 17.99C12.535 17.9905 12.5615 17.991 12.5875 17.9915C12.725 17.994 12.8625 17.996 13 17.9975V20.4965C12.903 20.4955 12.806 20.4955 12.7095 20.494C12.6655 20.493 12.623 20.4915 12.5795 20.491ZM3.5485 19.351C3.532 19.346 3.5165 19.3415 3.5 19.337V16.9215C3.967 17.0475 4.469 17.1625 5 17.267V19.7075C4.541 19.61 4.1175 19.5075 3.732 19.4025C3.671 19.385 3.608 19.3685 3.5485 19.351ZM14.0875 23.4915C14.225 23.494 14.3625 23.496 14.5 23.4975V25.997C13.809 25.9905 13.142 25.9705 12.5 25.939V23.4425C13.001 23.466 13.5045 23.4815 14.008 23.4905C14.0345 23.4905 14.061 23.491 14.0875 23.4915ZM15.992 23.49C16.4955 23.4805 16.999 23.465 17.5 23.442V25.9385C16.858 25.97 16.191 25.99 15.5 25.9965V23.497C15.6375 23.4955 15.775 23.4935 15.9125 23.491C15.939 23.491 15.9655 23.4905 15.992 23.49ZM20 23.264V25.747C19.5195 25.7975 19.0195 25.842 18.5 25.8785V23.385C19.007 23.352 19.508 23.3115 20 23.264ZM21 23.156C21.5155 23.094 22.016 23.0235 22.5 22.945V25.4C22.029 25.483 21.5285 25.5595 21 25.629V23.156ZM23.5 22.7665C24.031 22.662 24.533 22.547 25 22.421V24.8365C24.5545 24.965 24.053 25.0895 23.5 25.207V22.7665ZM6.5 22.7665V25.207C5.947 25.0895 5.4455 24.965 5 24.8365V22.421C5.467 22.547 5.969 22.6625 6.5 22.7665ZM7.5 22.9455C7.984 23.024 8.4845 23.0945 9 23.1565V25.6295C8.4715 25.56 7.971 25.4835 7.5 25.4005V22.9455ZM10 23.264C10.492 23.3115 10.993 23.352 11.5 23.3855V25.879C10.9805 25.8425 10.4805 25.798 10 25.7475V23.264ZM8.7595 20.274C8.7085 20.269 8.658 20.2635 8.6075 20.2585C8.5715 20.255 8.536 20.2505 8.5 20.247V17.7645C8.992 17.812 9.493 17.8525 10 17.886V20.3775C9.58 20.3475 9.165 20.3135 8.7595 20.274ZM7.5 17.656V20.129C6.9715 20.0595 6.471 19.983 6 19.9V17.445C6.484 17.5235 6.9845 17.5945 7.5 17.656ZM17.333 20.354C17.223 20.3625 17.112 20.371 17 20.379V17.8855C17.507 17.852 18.008 17.812 18.5 17.764V20.247C18.191 20.2795 17.875 20.31 17.5505 20.3365C17.478 20.343 17.4055 20.3485 17.333 20.354ZM19.5 20.129V17.656C20.0155 17.594 20.516 17.5235 21 17.445V19.9C20.529 19.983 20.0285 20.06 19.5 20.129ZM22 17.2665C22.531 17.162 23.033 17.047 23.5 16.921V19.3365C23.0545 19.465 22.553 19.5895 22 19.707V17.2665ZM15.1625 14.9825C14.7865 14.973 14.419 14.9585 14.058 14.941C14.0385 14.94 14.019 14.939 14 14.9385V12.442C14.501 12.4655 15.0045 12.481 15.508 12.49C15.5345 12.4905 15.561 12.491 15.587 12.4915C15.7245 12.494 15.862 12.496 15.9995 12.4975V14.994C15.756 14.9915 15.5105 14.9905 15.273 14.985C15.2365 14.984 15.199 14.9835 15.1625 14.9825ZM3.5 7.837V5.4215C3.967 5.5475 4.469 5.6625 5 5.767V8.2075C4.9385 8.1945 4.875 8.1815 4.815 8.1685C4.549 8.11 4.2895 8.049 4.0415 7.9845C3.8525 7.936 3.673 7.8865 3.5 7.837ZM12.5875 6.4915C12.725 6.494 12.8625 6.496 13 6.4975V8.994C12.327 8.9875 11.658 8.97 11 8.937V6.4425C11.501 6.466 12.0045 6.4815 12.508 6.4905C12.5345 6.4905 12.561 6.491 12.5875 6.4915ZM14.492 6.49C14.9955 6.4805 15.499 6.465 16 6.442V8.9365C15.915 8.9405 15.8335 8.9465 15.748 8.9505C15.741 8.951 15.734 8.951 15.7265 8.9515C15.391 8.9665 15.049 8.9775 14.7025 8.9855C14.6485 8.987 14.5945 8.9875 14.5405 8.989C14.3625 8.9925 14.1805 8.993 14 8.995V6.4975C14.1375 6.496 14.275 6.494 14.4125 6.4915C14.439 6.491 14.4655 6.4905 14.492 6.49ZM25.8855 6.741L25.8715 6.738L25.6895 6.8795C25.4255 7.085 25.02 7.293 24.5 7.494V5.1155C25.0945 4.9085 25.6005 4.679 26 4.4275V6.4965C26 6.5725 25.96 6.6545 25.8855 6.741ZM19.5 8.626V6.156C20.0155 6.094 20.516 6.0235 21 5.945V8.396C20.526 8.48 20.027 8.557 19.5 8.626ZM22 8.2035V5.767C22.531 5.6625 23.033 5.5475 23.5 5.4215V7.8315C23.052 7.962 22.5475 8.0865 22 8.2035ZM18.5 6.264V8.744C18.017 8.795 17.517 8.8395 17 8.8765V6.3855C17.507 6.352 18.008 6.3115 18.5 6.264ZM8.5 8.745V6.264C8.992 6.3115 9.493 6.352 10 6.3855V8.8745C9.491 8.838 8.989 8.7965 8.5 8.745ZM7.5 6.156V8.6265C7.401 8.6135 7.298 8.603 7.2 8.5895C7.136 8.5805 7.075 8.571 7.012 8.562C6.723 8.5205 6.4405 8.476 6.1635 8.4295C6.108 8.42 6.0545 8.41 6 8.4005V5.9455C6.484 6.0235 6.9845 6.0945 7.5 6.156ZM12.876 14.8695C12.8085 14.8645 12.7405 14.8595 12.6735 14.8545C12.3535 14.8295 12.041 14.802 11.736 14.7715C11.6705 14.765 11.605 14.758 11.54 14.7515C11.5265 14.75 11.5135 14.748 11.5 14.747V12.264C11.992 12.3115 12.493 12.352 13 12.3855V14.8775C12.9595 14.8745 12.9165 14.8725 12.876 14.8695ZM9.5725 14.496C9.3745 14.4645 9.1885 14.4305 9 14.3975V11.9455C9.484 12.024 9.9845 12.0945 10.5 12.1565V14.6295C10.194 14.589 9.8945 14.547 9.607 14.502C9.5955 14.4995 9.584 14.4975 9.5725 14.496ZM8 11.7665V14.203C7.4475 14.0845 6.9465 13.9585 6.5 13.8275V11.421C6.967 11.547 7.469 11.6625 8 11.7665ZM5.5 11.1155V13.491C4.714 13.1875 4.207 12.8775 4.042 12.6015L4.0085 12.5455C4.0055 12.53 4.0005 12.5135 4 12.498V10.4275C4.3995 10.679 4.9055 10.9085 5.5 11.1155ZM17.492 12.49C17.9955 12.4805 18.499 12.465 19 12.442V14.936C18.343 14.9685 17.675 14.9865 17 14.9935V12.4975C17.1375 12.496 17.275 12.494 17.4125 12.4915C17.439 12.491 17.4655 12.4905 17.492 12.49ZM23.9535 14.4085C23.734 14.4465 23.5125 14.484 23.285 14.5185C23.1545 14.5385 23.021 14.5575 22.887 14.5765C22.7605 14.5945 22.629 14.61 22.5005 14.6265V12.156C23.016 12.094 23.5165 12.0235 24.0005 11.945V14.4C23.9845 14.403 23.969 14.406 23.9535 14.4085ZM20.568 14.8355C20.3815 14.851 20.189 14.861 20 14.8745V12.3855C20.507 12.352 21.008 12.312 21.5 12.264V14.7445C21.2095 14.775 20.9195 14.8055 20.621 14.8305C20.603 14.832 20.586 14.834 20.568 14.8355ZM26.282 13.898C26.033 13.9675 25.7695 14.0325 25.5005 14.096C25.376 14.125 25.249 14.154 25.119 14.182C25.0805 14.1905 25.0395 14.198 25.0005 14.2065V11.767C25.5315 11.6625 26.0335 11.5475 26.5005 11.4215V13.837C26.4285 13.857 26.356 13.8775 26.282 13.898ZM28.9945 9.0325C28.9485 9.372 28.179 9.8235 26.8055 10.248C25.0365 10.7945 22.2685 11.295 18.7605 11.45C18.581 11.4575 18.402 11.465 18.219 11.471C18.0695 11.476 17.9195 11.4805 17.767 11.4845C17.353 11.4935 16.933 11.5 16.5 11.5C16.067 11.5 15.647 11.4935 15.233 11.484C15.081 11.4805 14.931 11.4755 14.781 11.4705C14.5975 11.465 14.4185 11.457 14.2395 11.4495C10.7315 11.2945 7.963 10.794 6.1945 10.2475C4.832 9.8265 4.064 9.3785 4.007 9.0405C4.0095 9.031 4.0095 9.023 4.0155 9.011C4.0495 9.0195 4.0875 9.0265 4.122 9.035C4.3175 9.0815 4.518 9.1265 4.722 9.1695C5.7155 9.3835 6.8165 9.559 7.9895 9.693C7.9935 9.693 7.9965 9.695 8 9.695C8.001 9.695 8.002 9.6945 8.0025 9.6945C8.8015 9.7855 9.6305 9.857 10.4815 9.9075C10.488 9.9075 10.4935 9.911 10.5 9.911C10.5035 9.911 10.506 9.909 10.5095 9.909C11.122 9.945 11.7425 9.9715 12.3705 9.9855C12.755 9.995 13.1325 10 13.5 10C13.7625 10 14.0315 9.997 14.303 9.992C17.936 9.936 21.303 9.504 23.646 8.8345C23.754 8.804 23.8595 8.7725 23.9635 8.741C24.027 8.7215 24.092 8.7025 24.1535 8.683C24.3345 8.625 24.508 8.5655 24.6755 8.5035C24.7045 8.4925 24.732 8.4815 24.761 8.4705C24.9025 8.417 25.0385 8.3615 25.1685 8.305C25.206 8.2885 25.2445 8.2725 25.281 8.256C25.4195 8.1935 25.5535 8.1295 25.6775 8.063C25.7335 8.0335 25.782 8.003 25.8345 7.973C25.8945 7.9385 25.9545 7.9035 26.01 7.868C26.0415 7.848 26.079 7.829 26.109 7.809C28.3475 8.2945 28.9375 8.8255 28.9945 9.0325ZM13.5 1C21.7445 1 25.9145 2.298 25.9925 3.043C25.932 3.381 25.1645 3.8275 23.8055 4.2475C22.0365 4.794 19.2685 5.2945 15.7605 5.4495C15.581 5.457 15.402 5.4645 15.219 5.4705C15.0695 5.4755 14.9195 5.48 14.767 5.484C14.353 5.4935 13.933 5.5 13.5 5.5C13.067 5.5 12.647 5.4935 12.233 5.484C12.081 5.4805 11.931 5.4755 11.781 5.4705C11.5975 5.465 11.4185 5.457 11.2395 5.4495C7.7315 5.2945 4.963 4.794 3.1945 4.2475C1.835 3.8275 1.068 3.381 1.0075 3.043C1.0855 2.298 5.2555 1 13.5 1ZM1 6.498V4.4275C1.3995 4.679 1.9055 4.9085 2.5 5.1155V7.5095C1.5275 7.145 1.001 6.7795 1 6.498ZM3.422 13.4175C3.4295 13.4255 3.441 13.4325 3.4485 13.4405C4.133 14.1315 5.5505 14.6745 7.315 15.0795C7.3555 15.089 7.3985 15.098 7.4395 15.1075C7.569 15.1365 7.7005 15.165 7.8335 15.1925C9.454 15.5375 11.3885 15.787 13.496 15.9105C13.4975 15.9105 13.4985 15.911 13.4995 15.911C13.5005 15.911 13.501 15.9105 13.5015 15.9105C14.1785 15.95 14.871 15.9775 15.578 15.9895C15.891 15.996 16.199 16 16.5 16C16.845 16 17.199 15.996 17.559 15.9875C18.213 15.974 18.8575 15.947 19.493 15.91C19.4955 15.91 19.4975 15.9115 19.5 15.9115C19.5045 15.9115 19.508 15.909 19.5125 15.909C21.6255 15.7845 23.608 15.5325 25.2845 15.17C24.9215 15.36 24.4245 15.5565 23.8055 15.748C21.938 16.325 18.9555 16.8505 15.165 16.9725C15.0525 16.976 14.9415 16.98 14.8275 16.983C14.705 16.986 14.5805 16.988 14.456 16.9905C14.1415 16.9955 13.825 17 13.5 17C13.067 17 12.647 16.9935 12.233 16.984C12.081 16.9805 11.931 16.9755 11.781 16.9705C11.5975 16.965 11.4185 16.957 11.2395 16.9495C7.7315 16.7945 4.963 16.294 3.1945 15.7475C1.8195 15.3225 1.05 14.8705 1.0055 14.531C1.061 14.343 1.5665 13.8725 3.422 13.4175ZM1 17.998V15.9275C1.3995 16.179 1.9055 16.4085 2.5 16.6155V19L2.2145 18.889L2.2085 18.895C1.4235 18.5695 1.001 18.25 1 17.998ZM2.5 23.498V21.4275C2.8995 21.679 3.4055 21.9085 4 22.1155V24.5095C3.0275 24.145 2.501 23.7795 2.5 23.498ZM26 24.5095V22.116C26.5945 21.909 27.1005 21.6795 27.5 21.428V23.497C27.4995 23.7785 26.9725 24.1445 26 24.5095ZM27.4935 20.0385C27.439 20.377 26.671 20.826 25.3055 21.248C23.5365 21.7945 20.7685 22.295 17.2605 22.45C17.081 22.4575 16.902 22.465 16.719 22.471C16.5695 22.476 16.4195 22.4805 16.267 22.4845C15.853 22.4935 15.433 22.5 15 22.5C14.567 22.5 14.1465 22.4935 13.732 22.484C13.5815 22.4805 13.433 22.4755 13.2845 22.4705C13.1 22.4645 12.92 22.457 12.7395 22.4495C9.2315 22.2945 6.4635 21.794 4.6945 21.2475C3.372 20.839 2.608 20.405 2.512 20.07C2.661 20.122 2.8155 20.1725 2.974 20.222C2.99 20.227 3.006 20.232 3.022 20.2365C3.157 20.278 3.295 20.318 3.4365 20.357C3.49 20.372 3.544 20.387 3.5985 20.4015C3.6785 20.423 3.7605 20.4435 3.8425 20.4645C5.6635 20.931 7.988 21.2615 10.4975 21.41C10.4985 21.41 10.499 21.4105 10.5 21.4105C10.5005 21.4105 10.501 21.41 10.5015 21.41C11.2765 21.456 12.068 21.4845 12.868 21.494C13.081 21.498 13.2925 21.5 13.5 21.5C13.7755 21.5 14.0575 21.4965 14.343 21.4915C15.0725 21.4795 15.7925 21.4525 16.4965 21.4105C16.498 21.4105 16.499 21.4115 16.5005 21.4115C16.503 21.4115 16.5045 21.41 16.507 21.41C17.3645 21.3585 18.1945 21.285 18.992 21.1935C18.995 21.1935 18.9975 21.195 19.0005 21.195C19.0115 21.195 19.0205 21.1895 19.0315 21.1885C19.9195 21.086 20.7615 20.96 21.543 20.8135C21.704 20.784 21.8625 20.7535 22.0195 20.722C22.0545 20.715 22.0895 20.708 22.1245 20.7005C23.601 20.3975 24.879 20.005 25.756 19.5185C25.804 19.4925 25.849 19.4655 25.8945 19.439C25.95 19.406 26.003 19.3725 26.0545 19.3385C26.1025 19.3075 26.158 19.2775 26.202 19.246C27.189 19.598 27.461 19.913 27.4935 20.0385ZM27.5 13.5095V11.116C28.0945 10.909 28.6005 10.6795 29 10.428V12.497C28.9995 12.7785 28.4725 13.1445 27.5 13.5095Z" fill="#859D93"/>
</svg>
