<svg width="20" height="12" viewBox="0 0 20 12" fill="#1D7C61" xmlns="http://www.w3.org/2000/svg">
  <path d="M17.2504 3.01236C13.2339 -1.00412 6.69921 -1.00412 2.68272 3.01236L0 5.69475L2.74928 8.44403C4.75735 10.4521 7.39514 11.4565 10.0333 11.4565C12.6714 11.4565 15.3089 10.4524 17.3173 8.44403L20 5.7613L17.2504 3.01236ZM16.8392 7.96633C13.0863 11.719 6.97995 11.719 3.22697 7.96633L0.955389 5.69475L3.16042 3.48972C6.9134 -0.262918 13.0197 -0.262918 16.7727 3.48972L19.0443 5.7613L16.8392 7.96633Z" fill="#1D7C61"/>
  <path d="M9.65254 3.01538C8.34851 3.01538 7.28772 4.07617 7.28772 5.38021C7.28772 5.56669 7.43907 5.71804 7.62555 5.71804C7.81204 5.71804 7.96338 5.56669 7.96338 5.38021C7.96338 4.4488 8.72114 3.69105 9.65254 3.69105C9.83903 3.69105 9.99038 3.5397 9.99038 3.35321C9.99038 3.16673 9.83937 3.01538 9.65254 3.01538Z" fill="#1D7C61"/>
  <path d="M9.99039 1.32617C7.56881 1.32617 5.59857 3.29641 5.59857 5.71799C5.59857 8.13957 7.56881 10.1098 9.99039 10.1098C12.412 10.1098 14.3822 8.13957 14.3822 5.71799C14.3822 3.29641 12.4123 1.32617 9.99039 1.32617ZM9.99039 9.43414C7.94144 9.43414 6.27424 7.76694 6.27424 5.71799C6.27424 3.66904 7.94144 2.00184 9.99039 2.00184C12.0393 2.00184 13.7065 3.66904 13.7065 5.71799C13.7065 7.76694 12.0397 9.43414 9.99039 9.43414Z" fill="#1D7C61"/>
</svg>