
<svg width="35" height="34" viewBox="0 0 35 34" fill="none" xmlns="http://www.w3.org/2000/svg">
<path d="M17.4186 14.8065C19.5977 14.8065 21.3702 13.0334 21.3702 10.8549C21.3702 8.67646 19.5977 6.90332 17.4186 6.90332C15.2396 6.90332 13.467 8.67646 13.467 10.8549C13.467 13.0334 15.2396 14.8065 17.4186 14.8065ZM17.4186 8.03235C18.975 8.03235 20.2412 9.29855 20.2412 10.8549C20.2412 12.4113 18.975 13.6775 17.4186 13.6775C15.8623 13.6775 14.5961 12.4113 14.5961 10.8549C14.5961 9.29855 15.8623 8.03235 17.4186 8.03235Z" fill="#384741"/>
<path d="M17.3189 31.04L25.9791 18.532C29.2273 14.2017 28.7576 7.08371 24.9737 3.30034C22.929 1.25511 20.2103 0.128906 17.3189 0.128906C14.4274 0.128906 11.7087 1.25511 9.66406 3.29978C5.88012 7.08315 5.41045 14.2011 8.64568 18.5146L17.3189 31.04ZM10.4623 4.098C12.2941 2.26672 14.7289 1.25793 17.3189 1.25793C19.9089 1.25793 22.3436 2.26672 24.1754 4.098C27.5908 7.51274 28.0113 13.9414 25.0634 17.8716L17.3189 29.0563L9.56188 17.8546C6.62641 13.9414 7.04754 7.51274 10.4623 4.098Z" fill="#384741"/>
<path d="M24.2589 24.4072C23.9484 24.3694 23.6684 24.5918 23.6323 24.9018C23.5962 25.2117 23.8174 25.4922 24.1268 25.5284C30.0632 26.2272 33.2251 28.1105 33.2251 29.2017C33.2251 30.7337 27.2119 32.871 17.4187 32.871C7.6255 32.871 1.6123 30.7337 1.6123 29.2017C1.6123 28.1105 4.77414 26.2272 10.7106 25.5284C11.0199 25.4922 11.2412 25.2111 11.2051 24.9018C11.1684 24.5918 10.8884 24.3683 10.5785 24.4072C4.63471 25.1072 0.483276 27.0785 0.483276 29.2017C0.483276 31.5862 6.30059 34 17.4187 34C28.5368 34 34.3541 31.5862 34.3541 29.2017C34.3541 27.0785 30.2027 25.1072 24.2589 24.4072Z" fill="#384741"/>
</svg>
