<svg width="115" height="28" viewBox="0 0 115 28" fill="none" xmlns="http://www.w3.org/2000/svg">
  <path d="M17.4129 0.835821C19.2239 1.39303 20.8955 2.08955 22.1493 3.06468L19.6418 8.49751C18.2488 7.66169 16.8557 6.96517 15.3234 6.40796C13.791 5.85075 12.5373 5.57214 11.4229 5.57214C10.5871 5.57214 9.89055 5.85075 9.33333 6.12935C8.77612 6.40796 8.49751 6.96517 8.49751 7.66169C8.49751 8.49751 8.91542 9.19403 9.75124 9.61194C10.5871 10.0299 11.8408 10.5871 13.5124 11.1443C15.3234 11.7015 16.8557 12.2587 17.9701 12.8159C19.0846 13.3731 20.199 14.209 21.0348 15.3234C21.8706 16.4378 22.2886 17.8308 22.2886 19.6418C22.2886 21.4527 21.8706 22.9851 20.8955 24.2388C19.9204 25.4925 18.6667 26.4677 17.1343 27.0249C15.602 27.7214 13.791 28 11.8408 28C9.75124 28 7.52239 27.5821 5.43284 26.8856C3.34328 26.0497 1.53234 25.0746 0 23.6816L2.50746 18.1095C3.76119 19.3632 5.43284 20.3383 7.10448 21.0348C8.77612 21.7313 10.5871 22.2886 11.9801 22.2886C13.0945 22.2886 13.9303 22.1493 14.4876 21.7313C15.0448 21.3134 15.3234 20.7562 15.3234 19.9204C15.3234 19.0846 14.9055 18.3881 14.0697 17.8308C13.2338 17.4129 11.9801 16.8557 10.1692 16.4378C8.49751 15.8806 6.96517 15.3234 5.85075 14.7662C4.73632 14.209 3.62189 13.5124 2.78607 12.398C1.95025 11.2836 1.53234 9.89055 1.53234 8.2189C1.53234 6.54726 1.95025 5.15423 2.78607 3.9005C3.62189 2.64677 4.87562 1.67164 6.40796 0.975124C7.9403 0.278607 9.89055 0 11.9801 0C13.791 0 15.602 0.278607 17.4129 0.835821ZM26.4677 27.8607V0H33.4328V27.8607H26.4677ZM62.1293 27.8607L57.1144 8.63682L52.0995 27.8607H44.995L36.2189 0H43.4627L48.7562 20.4776L53.9104 0H60.597L65.8905 20.4776L71.0448 0H78.0099L69.0945 27.8607H62.1293ZM98.9055 2.50746C100.716 4.1791 101.692 6.54726 101.692 9.75124C101.692 12.9552 100.716 15.602 98.9055 17.4129C97.0945 19.2239 94.4478 20.0597 90.9652 20.0597H86.0896V27.8607H79.403V0H90.9652C94.3085 0 96.9552 0.835821 98.9055 2.50746ZM86.3682 13.9303H91.1045C92.6368 13.9303 93.8905 13.5124 94.7264 12.8159C95.5622 12.1194 95.9801 11.005 95.9801 9.61194C95.9801 8.2189 95.5622 7.24378 94.7264 6.54726C93.8905 5.85075 92.7761 5.57214 91.1045 5.57214H86.3682V13.9303Z" fill="#0F4A39" />
  <path d="M114.23 19.5022H105.872V27.8604H114.23V19.5022Z" fill="#0F4A39" />
</svg>