<svg width="60" height="60" viewBox="0 0 36 35" fill="none" xmlns="http://www.w3.org/2000/svg">
<path d="M18.1395 34C13.6589 34 9.4505 32.2825 6.28457 29.1646C3.11888 26.0469 1.37793 21.9058 1.37793 17.5C1.37793 13.0942 3.11888 8.95314 6.28457 5.83543L5.93372 5.47919L6.28457 5.83543C9.4505 2.71746 13.6589 1 18.1395 1C22.62 1 26.8284 2.71746 29.9944 5.83543C33.16 8.95314 34.901 13.0942 34.901 17.5C34.901 21.9058 33.16 26.0469 29.9944 29.1646C26.8284 32.2825 22.62 34 18.1395 34Z" fill="white" stroke="#0F9670"/>
<path d="M9.36119 2.85627C8.12915 3.57593 6.98041 4.45285 5.94102 5.4765C2.68204 8.6861 0.884769 12.9576 0.884769 17.5C0.884769 22.0424 2.68204 26.3139 5.94102 29.5235C6.9808 30.5475 8.13002 31.4247 9.36258 32.1445C4.27714 29.1847 0.869385 23.7313 0.869385 17.5C0.869385 11.2693 4.27651 5.8163 9.36119 2.85627ZM26.915 32.1444C28.1474 31.4246 29.2965 30.5474 30.3362 29.5235C33.5952 26.3139 35.3925 22.0424 35.3925 17.5C35.3925 12.9576 33.5952 8.6861 30.3362 5.4765C29.2969 4.45291 28.1482 3.57603 26.9163 2.85639C32.0008 5.81645 35.4078 11.2694 35.4078 17.5C35.4078 23.7312 32.0002 29.1845 26.915 32.1444Z" fill="#00425F" stroke="#0F9670"/>
<path d="M18.4138 19.521C21.9046 19.521 24.7346 16.734 24.7346 13.296C24.7346 9.85801 21.9046 7.07098 18.4138 7.07098C14.9229 7.07098 12.093 9.85801 12.093 13.296C12.093 16.734 14.9229 19.521 18.4138 19.521Z" stroke="#0F9670" stroke-miterlimit="10" stroke-linecap="round" stroke-linejoin="round"/>
<path d="M14.1694 11.656C14.372 10.6568 14.9694 9.7778 15.8301 9.21238C16.6908 8.64696 17.7443 8.44142 18.7589 8.64097" stroke="#0F9670" stroke-miterlimit="10" stroke-linecap="round" stroke-linejoin="round"/>
<path d="M7.57245 27.832C7.5778 26.2268 8.22756 24.6889 9.37995 23.5538C10.5323 22.4187 12.0938 21.7785 13.7236 21.773H23.0977C24.7293 21.7759 26.2934 22.4149 27.4479 23.5503C28.6025 24.6857 29.2537 26.2251 29.259 27.832" stroke="#0F9670" stroke-miterlimit="10" stroke-linecap="round" stroke-linejoin="round"/>
<path d="M14.0471 12.899C13.9984 13.3116 13.9984 13.7284 14.0471 14.141" stroke="#0F9670" stroke-miterlimit="10" stroke-linecap="round" stroke-linejoin="round"/>
<path d="M18.4138 19.521C21.9046 19.521 24.7346 16.734 24.7346 13.296C24.7346 9.85801 21.9046 7.07098 18.4138 7.07098C14.9229 7.07098 12.093 9.85801 12.093 13.296C12.093 16.734 14.9229 19.521 18.4138 19.521Z" stroke="#0F9670" stroke-miterlimit="10" stroke-linecap="round" stroke-linejoin="round"/>
<path d="M14.1694 11.656C14.372 10.6568 14.9694 9.7778 15.8301 9.21238C16.6908 8.64696 17.7443 8.44142 18.7589 8.64097" stroke="#0F9670" stroke-miterlimit="10" stroke-linecap="round" stroke-linejoin="round"/>
<path d="M7.57245 27.832C7.5778 26.2268 8.22756 24.6889 9.37995 23.5538C10.5323 22.4187 12.0938 21.7785 13.7236 21.773H23.0977C24.7293 21.7759 26.2934 22.4149 27.4479 23.5503C28.6025 24.6857 29.2537 26.2251 29.259 27.832" stroke="#0F9670" stroke-miterlimit="10" stroke-linecap="round" stroke-linejoin="round"/>
<path d="M14.0471 12.899C13.9984 13.3116 13.9984 13.7284 14.0471 14.141" stroke="#0F9670" stroke-miterlimit="10" stroke-linecap="round" stroke-linejoin="round"/>
</svg>
