<svg width="25" height="25" viewBox="0 0 24 23" fill="none" xmlns="http://www.w3.org/2000/svg">
  <path d="M22.0056 17.2756L18.1844 15.3518C17.824 15.1701 17.6 14.8052 17.6 14.3992V13.0373C17.6916 12.9246 17.788 12.7961 17.8876 12.6543C18.3832 11.9494 18.7804 11.1647 19.0692 10.3185C19.6336 10.0578 20 9.49594 20 8.86154V7.25035C20 6.86246 19.856 6.48665 19.6 6.19301V4.05053C19.6224 3.82899 19.7104 2.51023 18.7632 1.42228C17.9416 0.478523 16.6084 0 14.8 0C12.9916 0 11.6584 0.478523 10.8368 1.42187C10.2628 2.08125 10.0696 2.82401 10.0112 3.35731C9.3256 3.00044 8.5176 2.81958 7.6 2.81958C3.4444 2.81958 3.2024 6.38635 3.2 6.44476V8.28916C2.9408 8.57354 2.8 8.90182 2.8 9.22768V10.6189C2.8 11.0536 2.9932 11.4588 3.3244 11.7327C3.6544 12.9854 4.466 13.9319 4.782 14.2643V15.3691C4.782 15.6861 4.6108 15.977 4.3136 16.1405L1.6524 17.8214C0.6332 18.3812 0 19.4555 0 20.6244V22.1538H5.6H6.4H24V20.5253C24 19.1405 23.2356 17.8951 22.0056 17.2756ZM5.6 20.4468V21.3483H0.8V20.6244C0.8 19.7504 1.2736 18.9472 2.0564 18.5166L4.7172 16.8357C5.2504 16.5429 5.5816 15.9814 5.5816 15.3691V13.9227L5.4544 13.8031C5.444 13.7934 4.3812 12.7824 4.0672 11.4044L4.0308 11.2449L3.894 11.1563C3.71 11.0362 3.6 10.8352 3.6 10.6189V9.22768C3.6 9.08267 3.698 8.91028 3.8684 8.7548L4 8.63517L3.9992 6.46812C4.0064 6.35252 4.2148 3.62517 7.6 3.62517C8.5572 3.62517 9.3632 3.84792 10 4.28737V6.19301C9.744 6.48665 9.6 6.86246 9.6 7.25035V8.86154C9.6 8.98399 9.614 9.10443 9.6404 9.22124C9.6512 9.26796 9.6728 9.31066 9.6876 9.35577C9.7096 9.42344 9.7272 9.49312 9.758 9.55717C9.7584 9.55797 9.7588 9.55838 9.7592 9.55918C9.8616 9.77186 10.0108 9.96198 10.1988 10.1138C10.2008 10.1215 10.2032 10.1283 10.2052 10.1356C10.2292 10.2278 10.2544 10.3197 10.2816 10.4095L10.314 10.5146C10.3196 10.5331 10.3264 10.5521 10.3324 10.5706C10.3464 10.6141 10.36 10.6572 10.3744 10.6999C10.3984 10.7704 10.4236 10.8433 10.4528 10.9227C10.4652 10.9557 10.4788 10.9855 10.4916 11.0181C10.5244 11.1023 10.5572 11.1837 10.5916 11.2642C10.6 11.2836 10.6072 11.3045 10.6156 11.3234L10.638 11.3742C10.6484 11.3976 10.6592 11.4185 10.6696 11.4415C10.7088 11.5277 10.7472 11.611 10.7872 11.6916C10.7936 11.7045 10.7996 11.7186 10.806 11.7315C10.8312 11.7818 10.8564 11.8293 10.8816 11.8777C10.9248 11.9607 10.9672 12.0388 11.0096 12.1145C11.0304 12.1516 11.0508 12.1878 11.0712 12.2229C11.1288 12.322 11.1836 12.413 11.2368 12.4976C11.2484 12.5157 11.2596 12.5346 11.2708 12.552C11.3676 12.703 11.4516 12.8255 11.5212 12.9209C11.5396 12.9463 11.5556 12.9681 11.5712 12.9894C11.58 13.0011 11.592 13.018 11.5996 13.0285V14.3613C11.5996 14.7512 11.3884 15.1089 11.0488 15.2958L9.9904 15.8771L9.806 15.8605L9.7308 16.0196L7.4804 17.2558C6.3204 17.8939 5.6 19.116 5.6 20.4468ZM23.2 21.3483H6.4V20.4468C6.4 19.4112 6.9608 18.4594 7.8636 17.964L11.432 16.0039C12.0292 15.6757 12.4 15.0461 12.4 14.3617V12.7433V12.7429L12.3224 12.6494L12.3072 12.6313C12.3064 12.6301 12.2816 12.5999 12.2412 12.5467C12.2388 12.5435 12.2364 12.5403 12.2336 12.5371C12.2124 12.5093 12.1876 12.4758 12.1592 12.436C12.1588 12.4352 12.1584 12.4348 12.158 12.4339C12.0984 12.3506 12.0236 12.2422 11.9404 12.1117C11.9384 12.1089 11.9368 12.1057 11.9348 12.1028C11.8956 12.0412 11.854 11.974 11.8116 11.9027C11.8084 11.8974 11.8052 11.8922 11.802 11.8865C11.7116 11.7339 11.6156 11.5611 11.52 11.3698C11.52 11.3698 11.5196 11.3694 11.5196 11.369C11.4688 11.2662 11.418 11.1583 11.3684 11.0459C11.3616 11.0302 11.3544 11.0149 11.3476 10.9992C11.3256 10.9488 11.3036 10.8961 11.2812 10.8417C11.2732 10.822 11.2652 10.8014 11.2572 10.7813C11.2364 10.7285 11.2152 10.6753 11.1928 10.6145C11.152 10.505 11.1136 10.3906 11.0768 10.2725L11.0548 10.2008C11.0524 10.1928 11.0496 10.1847 11.0472 10.1763C11.0096 10.049 10.9736 9.91888 10.9432 9.78515L10.9068 9.62564L10.7704 9.53703C10.5384 9.38638 10.4 9.13383 10.4 8.86154V7.25035C10.4 7.02438 10.4952 6.81372 10.668 6.65622L10.8 6.53659V4.02797V3.88538L10.7892 3.87692C10.7756 3.5861 10.7928 2.69471 11.4384 1.95316C12.1012 1.19147 13.2324 0.805594 14.8 0.805594C16.362 0.805594 17.4908 1.18865 18.1544 1.94471C18.9332 2.83126 18.8044 3.96554 18.8036 3.97521L18.8 6.53659L18.932 6.65663C19.1048 6.81372 19.2 7.02438 19.2 7.25035V8.86154C19.2 9.21318 18.9712 9.52092 18.6312 9.62645L18.432 9.68808L18.368 9.88746C18.1004 10.7257 17.7192 11.4999 17.2344 12.1886C17.1156 12.3582 17 12.5085 16.8996 12.6233L16.8 12.7377V14.3992C16.8 15.1121 17.1932 15.753 17.8264 16.072L21.6476 17.9958C22.6052 18.4779 23.2 19.4471 23.2 20.5253V21.3483Z" fill="#384741" />
</svg>