<svg width="90" height="80" viewBox="0 0 60 12" fill="none" xmlns="http://www.w3.org/2000/svg">
<path d="M54 11L59 6L54 1" stroke="#A7A9C0" stroke-width="1.5" stroke-linecap="round" stroke-linejoin="round"/>
<path d="M6.09752 1.29268C6.73166 1.4878 7.31703 1.7317 7.75605 2.07316L6.87801 3.97559C6.3902 3.68291 5.9024 3.43901 5.36582 3.24389C4.82924 3.04877 4.39022 2.95121 3.99997 2.95121C3.70729 2.95121 3.46339 3.04877 3.26827 3.14633C3.07315 3.24389 2.97559 3.43901 2.97559 3.68291C2.97559 3.97559 3.12193 4.21949 3.41461 4.36583C3.70729 4.51217 4.14631 4.70729 4.73168 4.90241C5.36582 5.09753 5.9024 5.29266 6.29264 5.48778C6.68288 5.6829 7.07313 5.97558 7.36581 6.36582C7.65849 6.75606 7.80483 7.24386 7.80483 7.87801C7.80483 8.51215 7.65849 9.04873 7.31703 9.48775C6.97556 9.92677 6.53654 10.2682 5.99996 10.4634C5.46338 10.7073 4.82924 10.8048 4.14632 10.8048C3.41461 10.8048 2.63413 10.6585 1.90243 10.4146C1.17072 10.1219 0.536582 9.78043 0 9.29263L0.878043 7.34142C1.31706 7.78044 1.90243 8.12191 2.48779 8.36581C3.07315 8.60971 3.70729 8.80483 4.1951 8.80483C4.58534 8.80483 4.87802 8.75605 5.07314 8.60971C5.26826 8.46337 5.36582 8.26825 5.36582 7.97556C5.36582 7.68288 5.21948 7.43898 4.9268 7.24386C4.63412 7.09752 4.1951 6.9024 3.56095 6.75606C2.97559 6.56094 2.43901 6.36582 2.04877 6.1707C1.65853 5.97558 1.26828 5.73168 0.975604 5.34144C0.682922 4.95119 0.536582 4.46339 0.536582 3.87803C0.536582 3.29267 0.682922 2.80487 0.975604 2.36584C1.26828 1.92682 1.70731 1.58536 2.24389 1.34146C2.78047 1.09756 3.46339 1 4.1951 1C4.82924 1 5.46338 1.09756 6.09752 1.29268ZM9.26823 10.756V1H11.7072V10.756H9.26823ZM21.756 10.756L19.9999 4.02437L18.2438 10.756H15.756L12.6828 1H15.2194L17.0731 8.17069L18.8779 1H21.2194L23.073 8.17069L24.8779 1H27.3169L24.195 10.756H21.756ZM34.6339 1.87804C35.2681 2.46341 35.6095 3.29267 35.6095 4.41461C35.6095 5.53656 35.2681 6.46338 34.6339 7.09752C33.9998 7.73166 33.073 8.02435 31.8535 8.02435H30.1461V10.756H27.8047V1H31.8535C33.0242 1 33.951 1.29268 34.6339 1.87804ZM30.2437 5.87802H31.9022C32.4388 5.87802 32.8778 5.73168 33.1705 5.48778C33.4632 5.24388 33.6095 4.85363 33.6095 4.36583C33.6095 3.87803 33.4632 3.53657 33.1705 3.29267C32.8778 3.04877 32.4876 2.95121 31.9022 2.95121H30.2437V5.87802Z" fill="#0F4A39"/>
<path d="M40.0001 7.82919H37.0732V10.756H40.0001V7.82919Z" fill="#0F9670"/>
</svg>
